<?xml version="1.0" standalone="no"?>
<!DOCTYPE svg PUBLIC "-//W3C//DTD SVG 20010904//EN"
 "http://www.w3.org/TR/2001/REC-SVG-20010904/DTD/svg10.dtd">
<svg version="1.0" xmlns="http://www.w3.org/2000/svg"
 width="512.000000pt" height="512.000000pt" viewBox="0 0 512.000000 512.000000"
 preserveAspectRatio="xMidYMid meet">

<g transform="translate(0.000000,512.000000) scale(0.100000,-0.100000)"
fill="#000000" stroke="none">
<path d="M1042 4313 c-12 -3 -40 -21 -61 -41 -51 -48 -61 -96 -35 -160 28 -67
69 -92 154 -92 l68 0 195 -244 c108 -134 201 -253 208 -263 10 -18 -1 -53 -85
-264 -54 -134 -99 -245 -101 -247 -1 -1 -44 5 -96 14 -174 30 -394 8 -567 -56
-240 -90 -461 -282 -586 -511 -114 -208 -160 -473 -122 -703 77 -466 421 -824
886 -922 119 -25 314 -23 440 3 307 66 562 247 727 519 72 119 112 224 148
396 l5 28 185 0 185 0 31 -62 c62 -123 191 -223 325 -251 45 -9 55 -15 66 -41
26 -64 132 -209 209 -285 338 -339 854 -423 1284 -209 315 157 543 468 600
819 75 468 -155 931 -577 1159 -148 79 -293 119 -478 129 l-114 6 -118 589
c-71 354 -125 601 -135 620 -10 17 -38 41 -63 54 -43 22 -51 22 -385 22 -333
0 -342 0 -385 -22 -83 -42 -109 -134 -60 -213 37 -59 39 -60 355 -65 l289 -5
33 -160 c17 -88 32 -166 33 -172 0 -10 -173 -13 -834 -13 l-834 0 -136 170
c-75 93 -136 172 -136 174 0 2 52 6 115 8 l115 3 37 37 c32 33 37 44 40 95 5
73 -19 116 -80 143 -39 18 -67 19 -382 18 -187 0 -350 -3 -363 -5z m2560
-1133 c20 -102 36 -191 35 -198 -1 -7 -36 -27 -78 -45 -215 -94 -401 -263
-525 -478 -41 -70 -47 -77 -82 -82 -20 -3 -45 -8 -54 -12 -13 -5 -102 100
-417 494 -221 275 -401 503 -401 506 0 3 334 4 742 3 l742 -3 38 -185z m-1378
-480 c229 -286 416 -523 416 -526 0 -3 -10 -28 -22 -55 l-23 -49 -189 2 -190
3 -12 65 c-25 135 -95 297 -182 420 -62 88 -202 225 -284 279 -38 24 -68 48
-68 55 0 17 124 326 131 326 4 0 194 -234 423 -520z m-958 18 c3 -3 -63 -176
-147 -384 -164 -409 -170 -433 -131 -497 42 -67 42 -67 506 -67 349 0 416 -2
416 -14 0 -8 -10 -45 -21 -82 -94 -305 -362 -525 -687 -564 -146 -18 -317 12
-447 78 -203 102 -364 297 -425 512 -125 448 156 912 615 1014 67 15 307 18
321 4z m2944 -13 c91 -22 233 -95 310 -158 359 -292 400 -838 87 -1173 -167
-179 -359 -265 -592 -267 -124 -1 -196 12 -306 54 -95 37 -184 93 -262 167
-57 55 -147 170 -147 188 0 5 16 20 36 34 49 35 118 129 146 198 19 48 23 76
23 172 0 113 -1 117 -38 194 -27 58 -55 96 -103 143 l-66 65 37 55 c55 82 161
181 251 235 43 26 88 48 98 50 18 3 26 -31 102 -405 88 -439 87 -437 158 -474
58 -30 151 -4 187 52 32 51 29 78 -52 483 -43 219 -79 401 -79 406 0 13 133 1
210 -19z m-2557 -179 c94 -79 190 -226 236 -364 34 -101 59 -92 -264 -92 -157
0 -285 2 -285 5 0 6 200 507 207 518 6 10 42 -13 106 -67z"/>
</g>
</svg>
